solid sphere_10_10
	facet normal 8.889881e-03 2.888497e-03 5.612850e-02
		outer loop
			vertex 0.000000e+00 0.000000e+00 1.000000e+00
			vertex 0.000000e+00 0.000000e+00 1.000000e+00
			vertex 2.500000e-01 1.816356e-01 9.510565e-01
		endloop
	endfacet
	facet normal 8.889881e-03 2.888497e-03 5.612850e-02
		outer loop
			vertex 0.000000e+00 0.000000e+00 1.000000e+00
			vertex 3.090170e-01 0.000000e+00 9.510565e-01
			vertex 2.500000e-01 1.816356e-01 9.510565e-01
		endloop
	endfacet
	facet normal 7.487289e-02 2.432768e-02 1.469463e-01
		outer loop
			vertex 2.500000e-01 1.816356e-01 9.510565e-01
			vertex 3.090170e-01 0.000000e+00 9.510565e-01
			vertex 4.755283e-01 3.454915e-01 8.090170e-01
		endloop
	endfacet
	facet normal 7.487289e-02 2.432768e-02 1.469463e-01
		outer loop
			vertex 3.090170e-01 0.000000e+00 9.510565e-01
			vertex 5.877853e-01 0.000000e+00 8.090170e-01
			vertex 4.755283e-01 3.454915e-01 8.090170e-01
		endloop
	endfacet
	facet normal 1.816356e-01 5.901699e-02 1.816356e-01
		outer loop
			vertex 4.755283e-01 3.454915e-01 8.090170e-01
			vertex 5.877853e-01 0.000000e+00 8.090170e-01
			vertex 6.545085e-01 4.755283e-01 5.877853e-01
		endloop
	endfacet
	facet normal 1.816356e-01 5.901699e-02 1.816356e-01
		outer loop
			vertex 5.877853e-01 0.000000e+00 8.090170e-01
			vertex 8.090170e-01 0.000000e+00 5.877853e-01
			vertex 6.545085e-01 4.755283e-01 5.877853e-01
		endloop
	endfacet
	facet normal 2.883984e-01 9.370631e-02 1.469463e-01
		outer loop
			vertex 6.545085e-01 4.755283e-01 5.877853e-01
			vertex 8.090170e-01 0.000000e+00 5.877853e-01
			vertex 7.694209e-01 5.590170e-01 3.090170e-01
		endloop
	endfacet
	facet normal 2.883984e-01 9.370631e-02 1.469463e-01
		outer loop
			vertex 8.090170e-01 0.000000e+00 5.877853e-01
			vertex 9.510565e-01 0.000000e+00 3.090170e-01
			vertex 7.694209e-01 5.590170e-01 3.090170e-01
		endloop
	endfacet
	facet normal 3.543814e-01 1.151455e-01 5.612850e-02
		outer loop
			vertex 7.694209e-01 5.590170e-01 3.090170e-01
			vertex 9.510565e-01 0.000000e+00 3.090170e-01
			vertex 8.090170e-01 5.877853e-01 6.123234e-17
		endloop
	endfacet
	facet normal 3.543814e-01 1.151455e-01 5.612850e-02
		outer loop
			vertex 9.510565e-01 0.000000e+00 3.090170e-01
			vertex 1.000000e+00 0.000000e+00 6.123234e-17
			vertex 8.090170e-01 5.877853e-01 6.123234e-17
		endloop
	endfacet
	facet normal 3.543814e-01 1.151455e-01 -5.612850e-02
		outer loop
			vertex 8.090170e-01 5.877853e-01 6.123234e-17
			vertex 1.000000e+00 0.000000e+00 6.123234e-17
			vertex 7.694209e-01 5.590170e-01 -3.090170e-01
		endloop
	endfacet
	facet normal 3.543814e-01 1.151455e-01 -5.612850e-02
		outer loop
			vertex 1.000000e+00 0.000000e+00 6.123234e-17
			vertex 9.510565e-01 0.000000e+00 -3.090170e-01
			vertex 7.694209e-01 5.590170e-01 -3.090170e-01
		endloop
	endfacet
	facet normal 2.883984e-01 9.370631e-02 -1.469463e-01
		outer loop
			vertex 7.694209e-01 5.590170e-01 -3.090170e-01
			vertex 9.510565e-01 0.000000e+00 -3.090170e-01
			vertex 6.545085e-01 4.755283e-01 -5.877853e-01
		endloop
	endfacet
	facet normal 2.883984e-01 9.370631e-02 -1.469463e-01
		outer loop
			vertex 9.510565e-01 0.000000e+00 -3.090170e-01
			vertex 8.090170e-01 0.000000e+00 -5.877853e-01
			vertex 6.545085e-01 4.755283e-01 -5.877853e-01
		endloop
	endfacet
	facet normal 1.816356e-01 5.901699e-02 -1.816356e-01
		outer loop
			vertex 6.545085e-01 4.755283e-01 -5.877853e-01
			vertex 8.090170e-01 0.000000e+00 -5.877853e-01
			vertex 4.755283e-01 3.454915e-01 -8.090170e-01
		endloop
	endfacet
	facet normal 1.816356e-01 5.901699e-02 -1.816356e-01
		outer loop
			vertex 8.090170e-01 0.000000e+00 -5.877853e-01
			vertex 5.877853e-01 0.000000e+00 -8.090170e-01
			vertex 4.755283e-01 3.454915e-01 -8.090170e-01
		endloop
	endfacet
	facet normal 7.487289e-02 2.432768e-02 -1.469463e-01
		outer loop
			vertex 4.755283e-01 3.454915e-01 -8.090170e-01
			vertex 5.877853e-01 0.000000e+00 -8.090170e-01
			vertex 2.500000e-01 1.816356e-01 -9.510565e-01
		endloop
	endfacet
	facet normal 7.487289e-02 2.432768e-02 -1.469463e-01
		outer loop
			vertex 5.877853e-01 0.000000e+00 -8.090170e-01
			vertex 3.090170e-01 0.000000e+00 -9.510565e-01
			vertex 2.500000e-01 1.816356e-01 -9.510565e-01
		endloop
	endfacet
	facet normal 8.889881e-03 2.888497e-03 -5.612850e-02
		outer loop
			vertex 2.500000e-01 1.816356e-01 -9.510565e-01
			vertex 3.090170e-01 0.000000e+00 -9.510565e-01
			vertex 9.907601e-17 7.198293e-17 -1.000000e+00
		endloop
	endfacet
	facet normal 8.889881e-03 2.888497e-03 -5.612850e-02
		outer loop
			vertex 3.090170e-01 0.000000e+00 -9.510565e-01
			vertex 1.224647e-16 0.000000e+00 -1.000000e+00
			vertex 9.907601e-17 7.198293e-17 -1.000000e+00
		endloop
	endfacet
	facet normal 5.494248e-03 7.562184e-03 5.612850e-02
		outer loop
			vertex 0.000000e+00 0.000000e+00 1.000000e+00
			vertex 0.000000e+00 0.000000e+00 1.000000e+00
			vertex 9.549150e-02 2.938926e-01 9.510565e-01
		endloop
	endfacet
	facet normal 5.494248e-03 7.562184e-03 5.612850e-02
		outer loop
			vertex 0.000000e+00 0.000000e+00 1.000000e+00
			vertex 2.500000e-01 1.816356e-01 9.510565e-01
			vertex 9.549150e-02 2.938926e-01 9.510565e-01
		endloop
	endfacet
	facet normal 4.627399e-02 6.369068e-02 1.469463e-01
		outer loop
			vertex 9.549150e-02 2.938926e-01 9.510565e-01
			vertex 2.500000e-01 1.816356e-01 9.510565e-01
			vertex 1.816356e-01 5.590170e-01 8.090170e-01
		endloop
	endfacet
	facet normal 4.627399e-02 6.369068e-02 1.469463e-01
		outer loop
			vertex 2.500000e-01 1.816356e-01 9.510565e-01
			vertex 4.755283e-01 3.454915e-01 8.090170e-01
			vertex 1.816356e-01 5.590170e-01 8.090170e-01
		endloop
	endfacet
	facet normal 1.122570e-01 1.545085e-01 1.816356e-01
		outer loop
			vertex 1.816356e-01 5.590170e-01 8.090170e-01
			vertex 4.755283e-01 3.454915e-01 8.090170e-01
			vertex 2.500000e-01 7.694209e-01 5.877853e-01
		endloop
	endfacet
	facet normal 1.122570e-01 1.545085e-01 1.816356e-01
		outer loop
			vertex 4.755283e-01 3.454915e-01 8.090170e-01
			vertex 6.545085e-01 4.755283e-01 5.877853e-01
			vertex 2.500000e-01 7.694209e-01 5.877853e-01
		endloop
	endfacet
	facet normal 1.782400e-01 2.453263e-01 1.469463e-01
		outer loop
			vertex 2.500000e-01 7.694209e-01 5.877853e-01
			vertex 6.545085e-01 4.755283e-01 5.877853e-01
			vertex 2.938926e-01 9.045085e-01 3.090170e-01
		endloop
	endfacet
	facet normal 1.782400e-01 2.453263e-01 1.469463e-01
		outer loop
			vertex 6.545085e-01 4.755283e-01 5.877853e-01
			vertex 7.694209e-01 5.590170e-01 3.090170e-01
			vertex 2.938926e-01 9.045085e-01 3.090170e-01
		endloop
	endfacet
	facet normal 2.190197e-01 3.014548e-01 5.612850e-02
		outer loop
			vertex 2.938926e-01 9.045085e-01 3.090170e-01
			vertex 7.694209e-01 5.590170e-01 3.090170e-01
			vertex 3.090170e-01 9.510565e-01 6.123234e-17
		endloop
	endfacet
	facet normal 2.190197e-01 3.014548e-01 5.612850e-02
		outer loop
			vertex 7.694209e-01 5.590170e-01 3.090170e-01
			vertex 8.090170e-01 5.877853e-01 6.123234e-17
			vertex 3.090170e-01 9.510565e-01 6.123234e-17
		endloop
	endfacet
	facet normal 2.190197e-01 3.014548e-01 -5.612850e-02
		outer loop
			vertex 3.090170e-01 9.510565e-01 6.123234e-17
			vertex 8.090170e-01 5.877853e-01 6.123234e-17
			vertex 2.938926e-01 9.045085e-01 -3.090170e-01
		endloop
	endfacet
	facet normal 2.190197e-01 3.014548e-01 -5.612850e-02
		outer loop
			vertex 8.090170e-01 5.877853e-01 6.123234e-17
			vertex 7.694209e-01 5.590170e-01 -3.090170e-01
			vertex 2.938926e-01 9.045085e-01 -3.090170e-01
		endloop
	endfacet
	facet normal 1.782400e-01 2.453263e-01 -1.469463e-01
		outer loop
			vertex 2.938926e-01 9.045085e-01 -3.090170e-01
			vertex 7.694209e-01 5.590170e-01 -3.090170e-01
			vertex 2.500000e-01 7.694209e-01 -5.877853e-01
		endloop
	endfacet
	facet normal 1.782400e-01 2.453263e-01 -1.469463e-01
		outer loop
			vertex 7.694209e-01 5.590170e-01 -3.090170e-01
			vertex 6.545085e-01 4.755283e-01 -5.877853e-01
			vertex 2.500000e-01 7.694209e-01 -5.877853e-01
		endloop
	endfacet
	facet normal 1.122570e-01 1.545085e-01 -1.816356e-01
		outer loop
			vertex 2.500000e-01 7.694209e-01 -5.877853e-01
			vertex 6.545085e-01 4.755283e-01 -5.877853e-01
			vertex 1.816356e-01 5.590170e-01 -8.090170e-01
		endloop
	endfacet
	facet normal 1.122570e-01 1.545085e-01 -1.816356e-01
		outer loop
			vertex 6.545085e-01 4.755283e-01 -5.877853e-01
			vertex 4.755283e-01 3.454915e-01 -8.090170e-01
			vertex 1.816356e-01 5.590170e-01 -8.090170e-01
		endloop
	endfacet
	facet normal 4.627399e-02 6.369068e-02 -1.469463e-01
		outer loop
			vertex 1.816356e-01 5.590170e-01 -8.090170e-01
			vertex 4.755283e-01 3.454915e-01 -8.090170e-01
			vertex 9.549150e-02 2.938926e-01 -9.510565e-01
		endloop
	endfacet
	facet normal 4.627399e-02 6.369068e-02 -1.469463e-01
		outer loop
			vertex 4.755283e-01 3.454915e-01 -8.090170e-01
			vertex 2.500000e-01 1.816356e-01 -9.510565e-01
			vertex 9.549150e-02 2.938926e-01 -9.510565e-01
		endloop
	endfacet
	facet normal 5.494248e-03 7.562184e-03 -5.612850e-02
		outer loop
			vertex 9.549150e-02 2.938926e-01 -9.510565e-01
			vertex 2.500000e-01 1.816356e-01 -9.510565e-01
			vertex 3.784367e-17 1.164708e-16 -1.000000e+00
		endloop
	endfacet
	facet normal 5.494248e-03 7.562184e-03 -5.612850e-02
		outer loop
			vertex 2.500000e-01 1.816356e-01 -9.510565e-01
			vertex 9.907601e-17 7.198293e-17 -1.000000e+00
			vertex 3.784367e-17 1.164708e-16 -1.000000e+00
		endloop
	endfacet
	facet normal 3.469447e-18 9.347374e-03 5.612850e-02
		outer loop
			vertex -0.000000e+00 0.000000e+00 1.000000e+00
			vertex 0.000000e+00 0.000000e+00 1.000000e+00
			vertex -9.549150e-02 2.938926e-01 9.510565e-01
		endloop
	endfacet
	facet normal 3.469447e-18 9.347374e-03 5.612850e-02
		outer loop
			vertex 0.000000e+00 0.000000e+00 1.000000e+00
			vertex 9.549150e-02 2.938926e-01 9.510565e-01
			vertex -9.549150e-02 2.938926e-01 9.510565e-01
		endloop
	endfacet
	facet normal 6.938894e-18 7.872601e-02 1.469463e-01
		outer loop
			vertex -9.549150e-02 2.938926e-01 9.510565e-01
			vertex 9.549150e-02 2.938926e-01 9.510565e-01
			vertex -1.816356e-01 5.590170e-01 8.090170e-01
		endloop
	endfacet
	facet normal 6.938894e-18 7.872601e-02 1.469463e-01
		outer loop
			vertex 9.549150e-02 2.938926e-01 9.510565e-01
			vertex 1.816356e-01 5.590170e-01 8.090170e-01
			vertex -1.816356e-01 5.590170e-01 8.090170e-01
		endloop
	endfacet
	facet normal 0.000000e+00 1.909830e-01 1.816356e-01
		outer loop
			vertex -1.816356e-01 5.590170e-01 8.090170e-01
			vertex 1.816356e-01 5.590170e-01 8.090170e-01
			vertex -2.500000e-01 7.694209e-01 5.877853e-01
		endloop
	endfacet
	facet normal 0.000000e+00 1.909830e-01 1.816356e-01
		outer loop
			vertex 1.816356e-01 5.590170e-01 8.090170e-01
			vertex 2.500000e-01 7.694209e-01 5.877853e-01
			vertex -2.500000e-01 7.694209e-01 5.877853e-01
		endloop
	endfacet
	facet normal 3.469447e-17 3.032400e-01 1.469463e-01
		outer loop
			vertex -2.500000e-01 7.694209e-01 5.877853e-01
			vertex 2.500000e-01 7.694209e-01 5.877853e-01
			vertex -2.938926e-01 9.045085e-01 3.090170e-01
		endloop
	endfacet
	facet normal 3.469447e-17 3.032400e-01 1.469463e-01
		outer loop
			vertex 2.500000e-01 7.694209e-01 5.877853e-01
			vertex 2.938926e-01 9.045085e-01 3.090170e-01
			vertex -2.938926e-01 9.045085e-01 3.090170e-01
		endloop
	endfacet
	facet normal 6.938894e-17 3.726186e-01 5.612850e-02
		outer loop
			vertex -2.938926e-01 9.045085e-01 3.090170e-01
			vertex 2.938926e-01 9.045085e-01 3.090170e-01
			vertex -3.090170e-01 9.510565e-01 6.123234e-17
		endloop
	endfacet
	facet normal 6.938894e-17 3.726186e-01 5.612850e-02
		outer loop
			vertex 2.938926e-01 9.045085e-01 3.090170e-01
			vertex 3.090170e-01 9.510565e-01 6.123234e-17
			vertex -3.090170e-01 9.510565e-01 6.123234e-17
		endloop
	endfacet
	facet normal 6.938894e-17 3.726186e-01 -5.612850e-02
		outer loop
			vertex -3.090170e-01 9.510565e-01 6.123234e-17
			vertex 3.090170e-01 9.510565e-01 6.123234e-17
			vertex -2.938926e-01 9.045085e-01 -3.090170e-01
		endloop
	endfacet
	facet normal 6.938894e-17 3.726186e-01 -5.612850e-02
		outer loop
			vertex 3.090170e-01 9.510565e-01 6.123234e-17
			vertex 2.938926e-01 9.045085e-01 -3.090170e-01
			vertex -2.938926e-01 9.045085e-01 -3.090170e-01
		endloop
	endfacet
	facet normal 2.775558e-17 3.032400e-01 -1.469463e-01
		outer loop
			vertex -2.938926e-01 9.045085e-01 -3.090170e-01
			vertex 2.938926e-01 9.045085e-01 -3.090170e-01
			vertex -2.500000e-01 7.694209e-01 -5.877853e-01
		endloop
	endfacet
	facet normal 2.775558e-17 3.032400e-01 -1.469463e-01
		outer loop
			vertex 2.938926e-01 9.045085e-01 -3.090170e-01
			vertex 2.500000e-01 7.694209e-01 -5.877853e-01
			vertex -2.500000e-01 7.694209e-01 -5.877853e-01
		endloop
	endfacet
	facet normal 0.000000e+00 1.909830e-01 -1.816356e-01
		outer loop
			vertex -2.500000e-01 7.694209e-01 -5.877853e-01
			vertex 2.500000e-01 7.694209e-01 -5.877853e-01
			vertex -1.816356e-01 5.590170e-01 -8.090170e-01
		endloop
	endfacet
	facet normal 0.000000e+00 1.909830e-01 -1.816356e-01
		outer loop
			vertex 2.500000e-01 7.694209e-01 -5.877853e-01
			vertex 1.816356e-01 5.590170e-01 -8.090170e-01
			vertex -1.816356e-01 5.590170e-01 -8.090170e-01
		endloop
	endfacet
	facet normal 1.387779e-17 7.872601e-02 -1.469463e-01
		outer loop
			vertex -1.816356e-01 5.590170e-01 -8.090170e-01
			vertex 1.816356e-01 5.590170e-01 -8.090170e-01
			vertex -9.549150e-02 2.938926e-01 -9.510565e-01
		endloop
	endfacet
	facet normal 1.387779e-17 7.872601e-02 -1.469463e-01
		outer loop
			vertex 1.816356e-01 5.590170e-01 -8.090170e-01
			vertex 9.549150e-02 2.938926e-01 -9.510565e-01
			vertex -9.549150e-02 2.938926e-01 -9.510565e-01
		endloop
	endfacet
	facet normal 3.469447e-18 9.347374e-03 -5.612850e-02
		outer loop
			vertex -9.549150e-02 2.938926e-01 -9.510565e-01
			vertex 9.549150e-02 2.938926e-01 -9.510565e-01
			vertex -3.784367e-17 1.164708e-16 -1.000000e+00
		endloop
	endfacet
	facet normal 3.469447e-18 9.347374e-03 -5.612850e-02
		outer loop
			vertex 9.549150e-02 2.938926e-01 -9.510565e-01
			vertex 3.784367e-17 1.164708e-16 -1.000000e+00
			vertex -3.784367e-17 1.164708e-16 -1.000000e+00
		endloop
	endfacet
	facet normal -5.494248e-03 7.562184e-03 5.612850e-02
		outer loop
			vertex -0.000000e+00 0.000000e+00 1.000000e+00
			vertex -0.000000e+00 0.000000e+00 1.000000e+00
			vertex -2.500000e-01 1.816356e-01 9.510565e-01
		endloop
	endfacet
	facet normal -5.494248e-03 7.562184e-03 5.612850e-02
		outer loop
			vertex -0.000000e+00 0.000000e+00 1.000000e+00
			vertex -9.549150e-02 2.938926e-01 9.510565e-01
			vertex -2.500000e-01 1.816356e-01 9.510565e-01
		endloop
	endfacet
	facet normal -4.627399e-02 6.369068e-02 1.469463e-01
		outer loop
			vertex -2.500000e-01 1.816356e-01 9.510565e-01
			vertex -9.549150e-02 2.938926e-01 9.510565e-01
			vertex -4.755283e-01 3.454915e-01 8.090170e-01
		endloop
	endfacet
	facet normal -4.627399e-02 6.369068e-02 1.469463e-01
		outer loop
			vertex -9.549150e-02 2.938926e-01 9.510565e-01
			vertex -1.816356e-01 5.590170e-01 8.090170e-01
			vertex -4.755283e-01 3.454915e-01 8.090170e-01
		endloop
	endfacet
	facet normal -1.122570e-01 1.545085e-01 1.816356e-01
		outer loop
			vertex -4.755283e-01 3.454915e-01 8.090170e-01
			vertex -1.816356e-01 5.590170e-01 8.090170e-01
			vertex -6.545085e-01 4.755283e-01 5.877853e-01
		endloop
	endfacet
	facet normal -1.122570e-01 1.545085e-01 1.816356e-01
		outer loop
			vertex -1.816356e-01 5.590170e-01 8.090170e-01
			vertex -2.500000e-01 7.694209e-01 5.877853e-01
			vertex -6.545085e-01 4.755283e-01 5.877853e-01
		endloop
	endfacet
	facet normal -1.782400e-01 2.453263e-01 1.469463e-01
		outer loop
			vertex -6.545085e-01 4.755283e-01 5.877853e-01
			vertex -2.500000e-01 7.694209e-01 5.877853e-01
			vertex -7.694209e-01 5.590170e-01 3.090170e-01
		endloop
	endfacet
	facet normal -1.782400e-01 2.453263e-01 1.469463e-01
		outer loop
			vertex -2.500000e-01 7.694209e-01 5.877853e-01
			vertex -2.938926e-01 9.045085e-01 3.090170e-01
			vertex -7.694209e-01 5.590170e-01 3.090170e-01
		endloop
	endfacet
	facet normal -2.190197e-01 3.014548e-01 5.612850e-02
		outer loop
			vertex -7.694209e-01 5.590170e-01 3.090170e-01
			vertex -2.938926e-01 9.045085e-01 3.090170e-01
			vertex -8.090170e-01 5.877853e-01 6.123234e-17
		endloop
	endfacet
	facet normal -2.190197e-01 3.014548e-01 5.612850e-02
		outer loop
			vertex -2.938926e-01 9.045085e-01 3.090170e-01
			vertex -3.090170e-01 9.510565e-01 6.123234e-17
			vertex -8.090170e-01 5.877853e-01 6.123234e-17
		endloop
	endfacet
	facet normal -2.190197e-01 3.014548e-01 -5.612850e-02
		outer loop
			vertex -8.090170e-01 5.877853e-01 6.123234e-17
			vertex -3.090170e-01 9.510565e-01 6.123234e-17
			vertex -7.694209e-01 5.590170e-01 -3.090170e-01
		endloop
	endfacet
	facet normal -2.190197e-01 3.014548e-01 -5.612850e-02
		outer loop
			vertex -3.090170e-01 9.510565e-01 6.123234e-17
			vertex -2.938926e-01 9.045085e-01 -3.090170e-01
			vertex -7.694209e-01 5.590170e-01 -3.090170e-01
		endloop
	endfacet
	facet normal -1.782400e-01 2.453263e-01 -1.469463e-01
		outer loop
			vertex -7.694209e-01 5.590170e-01 -3.090170e-01
			vertex -2.938926e-01 9.045085e-01 -3.090170e-01
			vertex -6.545085e-01 4.755283e-01 -5.877853e-01
		endloop
	endfacet
	facet normal -1.782400e-01 2.453263e-01 -1.469463e-01
		outer loop
			vertex -2.938926e-01 9.045085e-01 -3.090170e-01
			vertex -2.500000e-01 7.694209e-01 -5.877853e-01
			vertex -6.545085e-01 4.755283e-01 -5.877853e-01
		endloop
	endfacet
	facet normal -1.122570e-01 1.545085e-01 -1.816356e-01
		outer loop
			vertex -6.545085e-01 4.755283e-01 -5.877853e-01
			vertex -2.500000e-01 7.694209e-01 -5.877853e-01
			vertex -4.755283e-01 3.454915e-01 -8.090170e-01
		endloop
	endfacet
	facet normal -1.122570e-01 1.545085e-01 -1.816356e-01
		outer loop
			vertex -2.500000e-01 7.694209e-01 -5.877853e-01
			vertex -1.816356e-01 5.590170e-01 -8.090170e-01
			vertex -4.755283e-01 3.454915e-01 -8.090170e-01
		endloop
	endfacet
	facet normal -4.627399e-02 6.369068e-02 -1.469463e-01
		outer loop
			vertex -4.755283e-01 3.454915e-01 -8.090170e-01
			vertex -1.816356e-01 5.590170e-01 -8.090170e-01
			vertex -2.500000e-01 1.816356e-01 -9.510565e-01
		endloop
	endfacet
	facet normal -4.627399e-02 6.369068e-02 -1.469463e-01
		outer loop
			vertex -1.816356e-01 5.590170e-01 -8.090170e-01
			vertex -9.549150e-02 2.938926e-01 -9.510565e-01
			vertex -2.500000e-01 1.816356e-01 -9.510565e-01
		endloop
	endfacet
	facet normal -5.494248e-03 7.562184e-03 -5.612850e-02
		outer loop
			vertex -2.500000e-01 1.816356e-01 -9.510565e-01
			vertex -9.549150e-02 2.938926e-01 -9.510565e-01
			vertex -9.907601e-17 7.198293e-17 -1.000000e+00
		endloop
	endfacet
	facet normal -5.494248e-03 7.562184e-03 -5.612850e-02
		outer loop
			vertex -9.549150e-02 2.938926e-01 -9.510565e-01
			vertex -3.784367e-17 1.164708e-16 -1.000000e+00
			vertex -9.907601e-17 7.198293e-17 -1.000000e+00
		endloop
	endfacet
	facet normal -8.889881e-03 2.888497e-03 5.612850e-02
		outer loop
			vertex -0.000000e+00 0.000000e+00 1.000000e+00
			vertex -0.000000e+00 0.000000e+00 1.000000e+00
			vertex -3.090170e-01 3.784367e-17 9.510565e-01
		endloop
	endfacet
	facet normal -8.889881e-03 2.888497e-03 5.612850e-02
		outer loop
			vertex -0.000000e+00 0.000000e+00 1.000000e+00
			vertex -2.500000e-01 1.816356e-01 9.510565e-01
			vertex -3.090170e-01 3.784367e-17 9.510565e-01
		endloop
	endfacet
	facet normal -7.487289e-02 2.432768e-02 1.469463e-01
		outer loop
			vertex -3.090170e-01 3.784367e-17 9.510565e-01
			vertex -2.500000e-01 1.816356e-01 9.510565e-01
			vertex -5.877853e-01 7.198293e-17 8.090170e-01
		endloop
	endfacet
	facet normal -7.487289e-02 2.432768e-02 1.469463e-01
		outer loop
			vertex -2.500000e-01 1.816356e-01 9.510565e-01
			vertex -4.755283e-01 3.454915e-01 8.090170e-01
			vertex -5.877853e-01 7.198293e-17 8.090170e-01
		endloop
	endfacet
	facet normal -1.816356e-01 5.901699e-02 1.816356e-01
		outer loop
			vertex -5.877853e-01 7.198293e-17 8.090170e-01
			vertex -4.755283e-01 3.454915e-01 8.090170e-01
			vertex -8.090170e-01 9.907601e-17 5.877853e-01
		endloop
	endfacet
	facet normal -1.816356e-01 5.901699e-02 1.816356e-01
		outer loop
			vertex -4.755283e-01 3.454915e-01 8.090170e-01
			vertex -6.545085e-01 4.755283e-01 5.877853e-01
			vertex -8.090170e-01 9.907601e-17 5.877853e-01
		endloop
	endfacet
	facet normal -2.883984e-01 9.370631e-02 1.469463e-01
		outer loop
			vertex -8.090170e-01 9.907601e-17 5.877853e-01
			vertex -6.545085e-01 4.755283e-01 5.877853e-01
			vertex -9.510565e-01 1.164708e-16 3.090170e-01
		endloop
	endfacet
	facet normal -2.883984e-01 9.370631e-02 1.469463e-01
		outer loop
			vertex -6.545085e-01 4.755283e-01 5.877853e-01
			vertex -7.694209e-01 5.590170e-01 3.090170e-01
			vertex -9.510565e-01 1.164708e-16 3.090170e-01
		endloop
	endfacet
	facet normal -3.543814e-01 1.151455e-01 5.612850e-02
		outer loop
			vertex -9.510565e-01 1.164708e-16 3.090170e-01
			vertex -7.694209e-01 5.590170e-01 3.090170e-01
			vertex -1.000000e+00 1.224647e-16 6.123234e-17
		endloop
	endfacet
	facet normal -3.543814e-01 1.151455e-01 5.612850e-02
		outer loop
			vertex -7.694209e-01 5.590170e-01 3.090170e-01
			vertex -8.090170e-01 5.877853e-01 6.123234e-17
			vertex -1.000000e+00 1.224647e-16 6.123234e-17
		endloop
	endfacet
	facet normal -3.543814e-01 1.151455e-01 -5.612850e-02
		outer loop
			vertex -1.000000e+00 1.224647e-16 6.123234e-17
			vertex -8.090170e-01 5.877853e-01 6.123234e-17
			vertex -9.510565e-01 1.164708e-16 -3.090170e-01
		endloop
	endfacet
	facet normal -3.543814e-01 1.151455e-01 -5.612850e-02
		outer loop
			vertex -8.090170e-01 5.877853e-01 6.123234e-17
			vertex -7.694209e-01 5.590170e-01 -3.090170e-01
			vertex -9.510565e-01 1.164708e-16 -3.090170e-01
		endloop
	endfacet
	facet normal -2.883984e-01 9.370631e-02 -1.469463e-01
		outer loop
			vertex -9.510565e-01 1.164708e-16 -3.090170e-01
			vertex -7.694209e-01 5.590170e-01 -3.090170e-01
			vertex -8.090170e-01 9.907601e-17 -5.877853e-01
		endloop
	endfacet
	facet normal -2.883984e-01 9.370631e-02 -1.469463e-01
		outer loop
			vertex -7.694209e-01 5.590170e-01 -3.090170e-01
			vertex -6.545085e-01 4.755283e-01 -5.877853e-01
			vertex -8.090170e-01 9.907601e-17 -5.877853e-01
		endloop
	endfacet
	facet normal -1.816356e-01 5.901699e-02 -1.816356e-01
		outer loop
			vertex -8.090170e-01 9.907601e-17 -5.877853e-01
			vertex -6.545085e-01 4.755283e-01 -5.877853e-01
			vertex -5.877853e-01 7.198293e-17 -8.090170e-01
		endloop
	endfacet
	facet normal -1.816356e-01 5.901699e-02 -1.816356e-01
		outer loop
			vertex -6.545085e-01 4.755283e-01 -5.877853e-01
			vertex -4.755283e-01 3.454915e-01 -8.090170e-01
			vertex -5.877853e-01 7.198293e-17 -8.090170e-01
		endloop
	endfacet
	facet normal -7.487289e-02 2.432768e-02 -1.469463e-01
		outer loop
			vertex -5.877853e-01 7.198293e-17 -8.090170e-01
			vertex -4.755283e-01 3.454915e-01 -8.090170e-01
			vertex -3.090170e-01 3.784367e-17 -9.510565e-01
		endloop
	endfacet
	facet normal -7.487289e-02 2.432768e-02 -1.469463e-01
		outer loop
			vertex -4.755283e-01 3.454915e-01 -8.090170e-01
			vertex -2.500000e-01 1.816356e-01 -9.510565e-01
			vertex -3.090170e-01 3.784367e-17 -9.510565e-01
		endloop
	endfacet
	facet normal -8.889881e-03 2.888497e-03 -5.612850e-02
		outer loop
			vertex -3.090170e-01 3.784367e-17 -9.510565e-01
			vertex -2.500000e-01 1.816356e-01 -9.510565e-01
			vertex -1.224647e-16 1.499760e-32 -1.000000e+00
		endloop
	endfacet
	facet normal -8.889881e-03 2.888497e-03 -5.612850e-02
		outer loop
			vertex -2.500000e-01 1.816356e-01 -9.510565e-01
			vertex -9.907601e-17 7.198293e-17 -1.000000e+00
			vertex -1.224647e-16 1.499760e-32 -1.000000e+00
		endloop
	endfacet
	facet normal -8.889881e-03 -2.888497e-03 5.612850e-02
		outer loop
			vertex -0.000000e+00 -0.000000e+00 1.000000e+00
			vertex -0.000000e+00 0.000000e+00 1.000000e+00
			vertex -2.500000e-01 -1.816356e-01 9.510565e-01
		endloop
	endfacet
	facet normal -8.889881e-03 -2.888497e-03 5.612850e-02
		outer loop
			vertex -0.000000e+00 0.000000e+00 1.000000e+00
			vertex -3.090170e-01 3.784367e-17 9.510565e-01
			vertex -2.500000e-01 -1.816356e-01 9.510565e-01
		endloop
	endfacet
	facet normal -7.487289e-02 -2.432768e-02 1.469463e-01
		outer loop
			vertex -2.500000e-01 -1.816356e-01 9.510565e-01
			vertex -3.090170e-01 3.784367e-17 9.510565e-01
			vertex -4.755283e-01 -3.454915e-01 8.090170e-01
		endloop
	endfacet
	facet normal -7.487289e-02 -2.432768e-02 1.469463e-01
		outer loop
			vertex -3.090170e-01 3.784367e-17 9.510565e-01
			vertex -5.877853e-01 7.198293e-17 8.090170e-01
			vertex -4.755283e-01 -3.454915e-01 8.090170e-01
		endloop
	endfacet
	facet normal -1.816356e-01 -5.901699e-02 1.816356e-01
		outer loop
			vertex -4.755283e-01 -3.454915e-01 8.090170e-01
			vertex -5.877853e-01 7.198293e-17 8.090170e-01
			vertex -6.545085e-01 -4.755283e-01 5.877853e-01
		endloop
	endfacet
	facet normal -1.816356e-01 -5.901699e-02 1.816356e-01
		outer loop
			vertex -5.877853e-01 7.198293e-17 8.090170e-01
			vertex -8.090170e-01 9.907601e-17 5.877853e-01
			vertex -6.545085e-01 -4.755283e-01 5.877853e-01
		endloop
	endfacet
	facet normal -2.883984e-01 -9.370631e-02 1.469463e-01
		outer loop
			vertex -6.545085e-01 -4.755283e-01 5.877853e-01
			vertex -8.090170e-01 9.907601e-17 5.877853e-01
			vertex -7.694209e-01 -5.590170e-01 3.090170e-01
		endloop
	endfacet
	facet normal -2.883984e-01 -9.370631e-02 1.469463e-01
		outer loop
			vertex -8.090170e-01 9.907601e-17 5.877853e-01
			vertex -9.510565e-01 1.164708e-16 3.090170e-01
			vertex -7.694209e-01 -5.590170e-01 3.090170e-01
		endloop
	endfacet
	facet normal -3.543814e-01 -1.151455e-01 5.612850e-02
		outer loop
			vertex -7.694209e-01 -5.590170e-01 3.090170e-01
			vertex -9.510565e-01 1.164708e-16 3.090170e-01
			vertex -8.090170e-01 -5.877853e-01 6.123234e-17
		endloop
	endfacet
	facet normal -3.543814e-01 -1.151455e-01 5.612850e-02
		outer loop
			vertex -9.510565e-01 1.164708e-16 3.090170e-01
			vertex -1.000000e+00 1.224647e-16 6.123234e-17
			vertex -8.090170e-01 -5.877853e-01 6.123234e-17
		endloop
	endfacet
	facet normal -3.543814e-01 -1.151455e-01 -5.612850e-02
		outer loop
			vertex -8.090170e-01 -5.877853e-01 6.123234e-17
			vertex -1.000000e+00 1.224647e-16 6.123234e-17
			vertex -7.694209e-01 -5.590170e-01 -3.090170e-01
		endloop
	endfacet
	facet normal -3.543814e-01 -1.151455e-01 -5.612850e-02
		outer loop
			vertex -1.000000e+00 1.224647e-16 6.123234e-17
			vertex -9.510565e-01 1.164708e-16 -3.090170e-01
			vertex -7.694209e-01 -5.590170e-01 -3.090170e-01
		endloop
	endfacet
	facet normal -2.883984e-01 -9.370631e-02 -1.469463e-01
		outer loop
			vertex -7.694209e-01 -5.590170e-01 -3.090170e-01
			vertex -9.510565e-01 1.164708e-16 -3.090170e-01
			vertex -6.545085e-01 -4.755283e-01 -5.877853e-01
		endloop
	endfacet
	facet normal -2.883984e-01 -9.370631e-02 -1.469463e-01
		outer loop
			vertex -9.510565e-01 1.164708e-16 -3.090170e-01
			vertex -8.090170e-01 9.907601e-17 -5.877853e-01
			vertex -6.545085e-01 -4.755283e-01 -5.877853e-01
		endloop
	endfacet
	facet normal -1.816356e-01 -5.901699e-02 -1.816356e-01
		outer loop
			vertex -6.545085e-01 -4.755283e-01 -5.877853e-01
			vertex -8.090170e-01 9.907601e-17 -5.877853e-01
			vertex -4.755283e-01 -3.454915e-01 -8.090170e-01
		endloop
	endfacet
	facet normal -1.816356e-01 -5.901699e-02 -1.816356e-01
		outer loop
			vertex -8.090170e-01 9.907601e-17 -5.877853e-01
			vertex -5.877853e-01 7.198293e-17 -8.090170e-01
			vertex -4.755283e-01 -3.454915e-01 -8.090170e-01
		endloop
	endfacet
	facet normal -7.487289e-02 -2.432768e-02 -1.469463e-01
		outer loop
			vertex -4.755283e-01 -3.454915e-01 -8.090170e-01
			vertex -5.877853e-01 7.198293e-17 -8.090170e-01
			vertex -2.500000e-01 -1.816356e-01 -9.510565e-01
		endloop
	endfacet
	facet normal -7.487289e-02 -2.432768e-02 -1.469463e-01
		outer loop
			vertex -5.877853e-01 7.198293e-17 -8.090170e-01
			vertex -3.090170e-01 3.784367e-17 -9.510565e-01
			vertex -2.500000e-01 -1.816356e-01 -9.510565e-01
		endloop
	endfacet
	facet normal -8.889881e-03 -2.888497e-03 -5.612850e-02
		outer loop
			vertex -2.500000e-01 -1.816356e-01 -9.510565e-01
			vertex -3.090170e-01 3.784367e-17 -9.510565e-01
			vertex -9.907601e-17 -7.198293e-17 -1.000000e+00
		endloop
	endfacet
	facet normal -8.889881e-03 -2.888497e-03 -5.612850e-02
		outer loop
			vertex -3.090170e-01 3.784367e-17 -9.510565e-01
			vertex -1.224647e-16 1.499760e-32 -1.000000e+00
			vertex -9.907601e-17 -7.198293e-17 -1.000000e+00
		endloop
	endfacet
	facet normal -5.494248e-03 -7.562184e-03 5.612850e-02
		outer loop
			vertex -0.000000e+00 -0.000000e+00 1.000000e+00
			vertex -0.000000e+00 -0.000000e+00 1.000000e+00
			vertex -9.549150e-02 -2.938926e-01 9.510565e-01
		endloop
	endfacet
	facet normal -5.494248e-03 -7.562184e-03 5.612850e-02
		outer loop
			vertex -0.000000e+00 -0.000000e+00 1.000000e+00
			vertex -2.500000e-01 -1.816356e-01 9.510565e-01
			vertex -9.549150e-02 -2.938926e-01 9.510565e-01
		endloop
	endfacet
	facet normal -4.627399e-02 -6.369068e-02 1.469463e-01
		outer loop
			vertex -9.549150e-02 -2.938926e-01 9.510565e-01
			vertex -2.500000e-01 -1.816356e-01 9.510565e-01
			vertex -1.816356e-01 -5.590170e-01 8.090170e-01
		endloop
	endfacet
	facet normal -4.627399e-02 -6.369068e-02 1.469463e-01
		outer loop
			vertex -2.500000e-01 -1.816356e-01 9.510565e-01
			vertex -4.755283e-01 -3.454915e-01 8.090170e-01
			vertex -1.816356e-01 -5.590170e-01 8.090170e-01
		endloop
	endfacet
	facet normal -1.122570e-01 -1.545085e-01 1.816356e-01
		outer loop
			vertex -1.816356e-01 -5.590170e-01 8.090170e-01
			vertex -4.755283e-01 -3.454915e-01 8.090170e-01
			vertex -2.500000e-01 -7.694209e-01 5.877853e-01
		endloop
	endfacet
	facet normal -1.122570e-01 -1.545085e-01 1.816356e-01
		outer loop
			vertex -4.755283e-01 -3.454915e-01 8.090170e-01
			vertex -6.545085e-01 -4.755283e-01 5.877853e-01
			vertex -2.500000e-01 -7.694209e-01 5.877853e-01
		endloop
	endfacet
	facet normal -1.782400e-01 -2.453263e-01 1.469463e-01
		outer loop
			vertex -2.500000e-01 -7.694209e-01 5.877853e-01
			vertex -6.545085e-01 -4.755283e-01 5.877853e-01
			vertex -2.938926e-01 -9.045085e-01 3.090170e-01
		endloop
	endfacet
	facet normal -1.782400e-01 -2.453263e-01 1.469463e-01
		outer loop
			vertex -6.545085e-01 -4.755283e-01 5.877853e-01
			vertex -7.694209e-01 -5.590170e-01 3.090170e-01
			vertex -2.938926e-01 -9.045085e-01 3.090170e-01
		endloop
	endfacet
	facet normal -2.190197e-01 -3.014548e-01 5.612850e-02
		outer loop
			vertex -2.938926e-01 -9.045085e-01 3.090170e-01
			vertex -7.694209e-01 -5.590170e-01 3.090170e-01
			vertex -3.090170e-01 -9.510565e-01 6.123234e-17
		endloop
	endfacet
	facet normal -2.190197e-01 -3.014548e-01 5.612850e-02
		outer loop
			vertex -7.694209e-01 -5.590170e-01 3.090170e-01
			vertex -8.090170e-01 -5.877853e-01 6.123234e-17
			vertex -3.090170e-01 -9.510565e-01 6.123234e-17
		endloop
	endfacet
	facet normal -2.190197e-01 -3.014548e-01 -5.612850e-02
		outer loop
			vertex -3.090170e-01 -9.510565e-01 6.123234e-17
			vertex -8.090170e-01 -5.877853e-01 6.123234e-17
			vertex -2.938926e-01 -9.045085e-01 -3.090170e-01
		endloop
	endfacet
	facet normal -2.190197e-01 -3.014548e-01 -5.612850e-02
		outer loop
			vertex -8.090170e-01 -5.877853e-01 6.123234e-17
			vertex -7.694209e-01 -5.590170e-01 -3.090170e-01
			vertex -2.938926e-01 -9.045085e-01 -3.090170e-01
		endloop
	endfacet
	facet normal -1.782400e-01 -2.453263e-01 -1.469463e-01
		outer loop
			vertex -2.938926e-01 -9.045085e-01 -3.090170e-01
			vertex -7.694209e-01 -5.590170e-01 -3.090170e-01
			vertex -2.500000e-01 -7.694209e-01 -5.877853e-01
		endloop
	endfacet
	facet normal -1.782400e-01 -2.453263e-01 -1.469463e-01
		outer loop
			vertex -7.694209e-01 -5.590170e-01 -3.090170e-01
			vertex -6.545085e-01 -4.755283e-01 -5.877853e-01
			vertex -2.500000e-01 -7.694209e-01 -5.877853e-01
		endloop
	endfacet
	facet normal -1.122570e-01 -1.545085e-01 -1.816356e-01
		outer loop
			vertex -2.500000e-01 -7.694209e-01 -5.877853e-01
			vertex -6.545085e-01 -4.755283e-01 -5.877853e-01
			vertex -1.816356e-01 -5.590170e-01 -8.090170e-01
		endloop
	endfacet
	facet normal -1.122570e-01 -1.545085e-01 -1.816356e-01
		outer loop
			vertex -6.545085e-01 -4.755283e-01 -5.877853e-01
			vertex -4.755283e-01 -3.454915e-01 -8.090170e-01
			vertex -1.816356e-01 -5.590170e-01 -8.090170e-01
		endloop
	endfacet
	facet normal -4.627399e-02 -6.369068e-02 -1.469463e-01
		outer loop
			vertex -1.816356e-01 -5.590170e-01 -8.090170e-01
			vertex -4.755283e-01 -3.454915e-01 -8.090170e-01
			vertex -9.549150e-02 -2.938926e-01 -9.510565e-01
		endloop
	endfacet
	facet normal -4.627399e-02 -6.369068e-02 -1.469463e-01
		outer loop
			vertex -4.755283e-01 -3.454915e-01 -8.090170e-01
			vertex -2.500000e-01 -1.816356e-01 -9.510565e-01
			vertex -9.549150e-02 -2.938926e-01 -9.510565e-01
		endloop
	endfacet
	facet normal -5.494248e-03 -7.562184e-03 -5.612850e-02
		outer loop
			vertex -9.549150e-02 -2.938926e-01 -9.510565e-01
			vertex -2.500000e-01 -1.816356e-01 -9.510565e-01
			vertex -3.784367e-17 -1.164708e-16 -1.000000e+00
		endloop
	endfacet
	facet normal -5.494248e-03 -7.562184e-03 -5.612850e-02
		outer loop
			vertex -2.500000e-01 -1.816356e-01 -9.510565e-01
			vertex -9.907601e-17 -7.198293e-17 -1.000000e+00
			vertex -3.784367e-17 -1.164708e-16 -1.000000e+00
		endloop
	endfacet
	facet normal -3.469447e-18 -9.347374e-03 5.612850e-02
		outer loop
			vertex 0.000000e+00 -0.000000e+00 1.000000e+00
			vertex -0.000000e+00 -0.000000e+00 1.000000e+00
			vertex 9.549150e-02 -2.938926e-01 9.510565e-01
		endloop
	endfacet
	facet normal -3.469447e-18 -9.347374e-03 5.612850e-02
		outer loop
			vertex -0.000000e+00 -0.000000e+00 1.000000e+00
			vertex -9.549150e-02 -2.938926e-01 9.510565e-01
			vertex 9.549150e-02 -2.938926e-01 9.510565e-01
		endloop
	endfacet
	facet normal -6.938894e-18 -7.872601e-02 1.469463e-01
		outer loop
			vertex 9.549150e-02 -2.938926e-01 9.510565e-01
			vertex -9.549150e-02 -2.938926e-01 9.510565e-01
			vertex 1.816356e-01 -5.590170e-01 8.090170e-01
		endloop
	endfacet
	facet normal -6.938894e-18 -7.872601e-02 1.469463e-01
		outer loop
			vertex -9.549150e-02 -2.938926e-01 9.510565e-01
			vertex -1.816356e-01 -5.590170e-01 8.090170e-01
			vertex 1.816356e-01 -5.590170e-01 8.090170e-01
		endloop
	endfacet
	facet normal 0.000000e+00 -1.909830e-01 1.816356e-01
		outer loop
			vertex 1.816356e-01 -5.590170e-01 8.090170e-01
			vertex -1.816356e-01 -5.590170e-01 8.090170e-01
			vertex 2.500000e-01 -7.694209e-01 5.877853e-01
		endloop
	endfacet
	facet normal 0.000000e+00 -1.909830e-01 1.816356e-01
		outer loop
			vertex -1.816356e-01 -5.590170e-01 8.090170e-01
			vertex -2.500000e-01 -7.694209e-01 5.877853e-01
			vertex 2.500000e-01 -7.694209e-01 5.877853e-01
		endloop
	endfacet
	facet normal -3.469447e-17 -3.032400e-01 1.469463e-01
		outer loop
			vertex 2.500000e-01 -7.694209e-01 5.877853e-01
			vertex -2.500000e-01 -7.694209e-01 5.877853e-01
			vertex 2.938926e-01 -9.045085e-01 3.090170e-01
		endloop
	endfacet
	facet normal -3.469447e-17 -3.032400e-01 1.469463e-01
		outer loop
			vertex -2.500000e-01 -7.694209e-01 5.877853e-01
			vertex -2.938926e-01 -9.045085e-01 3.090170e-01
			vertex 2.938926e-01 -9.045085e-01 3.090170e-01
		endloop
	endfacet
	facet normal -6.938894e-17 -3.726186e-01 5.612850e-02
		outer loop
			vertex 2.938926e-01 -9.045085e-01 3.090170e-01
			vertex -2.938926e-01 -9.045085e-01 3.090170e-01
			vertex 3.090170e-01 -9.510565e-01 6.123234e-17
		endloop
	endfacet
	facet normal -6.938894e-17 -3.726186e-01 5.612850e-02
		outer loop
			vertex -2.938926e-01 -9.045085e-01 3.090170e-01
			vertex -3.090170e-01 -9.510565e-01 6.123234e-17
			vertex 3.090170e-01 -9.510565e-01 6.123234e-17
		endloop
	endfacet
	facet normal -6.938894e-17 -3.726186e-01 -5.612850e-02
		outer loop
			vertex 3.090170e-01 -9.510565e-01 6.123234e-17
			vertex -3.090170e-01 -9.510565e-01 6.123234e-17
			vertex 2.938926e-01 -9.045085e-01 -3.090170e-01
		endloop
	endfacet
	facet normal -6.938894e-17 -3.726186e-01 -5.612850e-02
		outer loop
			vertex -3.090170e-01 -9.510565e-01 6.123234e-17
			vertex -2.938926e-01 -9.045085e-01 -3.090170e-01
			vertex 2.938926e-01 -9.045085e-01 -3.090170e-01
		endloop
	endfacet
	facet normal -2.775558e-17 -3.032400e-01 -1.469463e-01
		outer loop
			vertex 2.938926e-01 -9.045085e-01 -3.090170e-01
			vertex -2.938926e-01 -9.045085e-01 -3.090170e-01
			vertex 2.500000e-01 -7.694209e-01 -5.877853e-01
		endloop
	endfacet
	facet normal -2.775558e-17 -3.032400e-01 -1.469463e-01
		outer loop
			vertex -2.938926e-01 -9.045085e-01 -3.090170e-01
			vertex -2.500000e-01 -7.694209e-01 -5.877853e-01
			vertex 2.500000e-01 -7.694209e-01 -5.877853e-01
		endloop
	endfacet
	facet normal 0.000000e+00 -1.909830e-01 -1.816356e-01
		outer loop
			vertex 2.500000e-01 -7.694209e-01 -5.877853e-01
			vertex -2.500000e-01 -7.694209e-01 -5.877853e-01
			vertex 1.816356e-01 -5.590170e-01 -8.090170e-01
		endloop
	endfacet
	facet normal 0.000000e+00 -1.909830e-01 -1.816356e-01
		outer loop
			vertex -2.500000e-01 -7.694209e-01 -5.877853e-01
			vertex -1.816356e-01 -5.590170e-01 -8.090170e-01
			vertex 1.816356e-01 -5.590170e-01 -8.090170e-01
		endloop
	endfacet
	facet normal -1.387779e-17 -7.872601e-02 -1.469463e-01
		outer loop
			vertex 1.816356e-01 -5.590170e-01 -8.090170e-01
			vertex -1.816356e-01 -5.590170e-01 -8.090170e-01
			vertex 9.549150e-02 -2.938926e-01 -9.510565e-01
		endloop
	endfacet
	facet normal -1.387779e-17 -7.872601e-02 -1.469463e-01
		outer loop
			vertex -1.816356e-01 -5.590170e-01 -8.090170e-01
			vertex -9.549150e-02 -2.938926e-01 -9.510565e-01
			vertex 9.549150e-02 -2.938926e-01 -9.510565e-01
		endloop
	endfacet
	facet normal -3.469447e-18 -9.347374e-03 -5.612850e-02
		outer loop
			vertex 9.549150e-02 -2.938926e-01 -9.510565e-01
			vertex -9.549150e-02 -2.938926e-01 -9.510565e-01
			vertex 3.784367e-17 -1.164708e-16 -1.000000e+00
		endloop
	endfacet
	facet normal -3.469447e-18 -9.347374e-03 -5.612850e-02
		outer loop
			vertex -9.549150e-02 -2.938926e-01 -9.510565e-01
			vertex -3.784367e-17 -1.164708e-16 -1.000000e+00
			vertex 3.784367e-17 -1.164708e-16 -1.000000e+00
		endloop
	endfacet
	facet normal 5.494248e-03 -7.562184e-03 5.612850e-02
		outer loop
			vertex 0.000000e+00 -0.000000e+00 1.000000e+00
			vertex 0.000000e+00 -0.000000e+00 1.000000e+00
			vertex 2.500000e-01 -1.816356e-01 9.510565e-01
		endloop
	endfacet
	facet normal 5.494248e-03 -7.562184e-03 5.612850e-02
		outer loop
			vertex 0.000000e+00 -0.000000e+00 1.000000e+00
			vertex 9.549150e-02 -2.938926e-01 9.510565e-01
			vertex 2.500000e-01 -1.816356e-01 9.510565e-01
		endloop
	endfacet
	facet normal 4.627399e-02 -6.369068e-02 1.469463e-01
		outer loop
			vertex 2.500000e-01 -1.816356e-01 9.510565e-01
			vertex 9.549150e-02 -2.938926e-01 9.510565e-01
			vertex 4.755283e-01 -3.454915e-01 8.090170e-01
		endloop
	endfacet
	facet normal 4.627399e-02 -6.369068e-02 1.469463e-01
		outer loop
			vertex 9.549150e-02 -2.938926e-01 9.510565e-01
			vertex 1.816356e-01 -5.590170e-01 8.090170e-01
			vertex 4.755283e-01 -3.454915e-01 8.090170e-01
		endloop
	endfacet
	facet normal 1.122570e-01 -1.545085e-01 1.816356e-01
		outer loop
			vertex 4.755283e-01 -3.454915e-01 8.090170e-01
			vertex 1.816356e-01 -5.590170e-01 8.090170e-01
			vertex 6.545085e-01 -4.755283e-01 5.877853e-01
		endloop
	endfacet
	facet normal 1.122570e-01 -1.545085e-01 1.816356e-01
		outer loop
			vertex 1.816356e-01 -5.590170e-01 8.090170e-01
			vertex 2.500000e-01 -7.694209e-01 5.877853e-01
			vertex 6.545085e-01 -4.755283e-01 5.877853e-01
		endloop
	endfacet
	facet normal 1.782400e-01 -2.453263e-01 1.469463e-01
		outer loop
			vertex 6.545085e-01 -4.755283e-01 5.877853e-01
			vertex 2.500000e-01 -7.694209e-01 5.877853e-01
			vertex 7.694209e-01 -5.590170e-01 3.090170e-01
		endloop
	endfacet
	facet normal 1.782400e-01 -2.453263e-01 1.469463e-01
		outer loop
			vertex 2.500000e-01 -7.694209e-01 5.877853e-01
			vertex 2.938926e-01 -9.045085e-01 3.090170e-01
			vertex 7.694209e-01 -5.590170e-01 3.090170e-01
		endloop
	endfacet
	facet normal 2.190197e-01 -3.014548e-01 5.612850e-02
		outer loop
			vertex 7.694209e-01 -5.590170e-01 3.090170e-01
			vertex 2.938926e-01 -9.045085e-01 3.090170e-01
			vertex 8.090170e-01 -5.877853e-01 6.123234e-17
		endloop
	endfacet
	facet normal 2.190197e-01 -3.014548e-01 5.612850e-02
		outer loop
			vertex 2.938926e-01 -9.045085e-01 3.090170e-01
			vertex 3.090170e-01 -9.510565e-01 6.123234e-17
			vertex 8.090170e-01 -5.877853e-01 6.123234e-17
		endloop
	endfacet
	facet normal 2.190197e-01 -3.014548e-01 -5.612850e-02
		outer loop
			vertex 8.090170e-01 -5.877853e-01 6.123234e-17
			vertex 3.090170e-01 -9.510565e-01 6.123234e-17
			vertex 7.694209e-01 -5.590170e-01 -3.090170e-01
		endloop
	endfacet
	facet normal 2.190197e-01 -3.014548e-01 -5.612850e-02
		outer loop
			vertex 3.090170e-01 -9.510565e-01 6.123234e-17
			vertex 2.938926e-01 -9.045085e-01 -3.090170e-01
			vertex 7.694209e-01 -5.590170e-01 -3.090170e-01
		endloop
	endfacet
	facet normal 1.782400e-01 -2.453263e-01 -1.469463e-01
		outer loop
			vertex 7.694209e-01 -5.590170e-01 -3.090170e-01
			vertex 2.938926e-01 -9.045085e-01 -3.090170e-01
			vertex 6.545085e-01 -4.755283e-01 -5.877853e-01
		endloop
	endfacet
	facet normal 1.782400e-01 -2.453263e-01 -1.469463e-01
		outer loop
			vertex 2.938926e-01 -9.045085e-01 -3.090170e-01
			vertex 2.500000e-01 -7.694209e-01 -5.877853e-01
			vertex 6.545085e-01 -4.755283e-01 -5.877853e-01
		endloop
	endfacet
	facet normal 1.122570e-01 -1.545085e-01 -1.816356e-01
		outer loop
			vertex 6.545085e-01 -4.755283e-01 -5.877853e-01
			vertex 2.500000e-01 -7.694209e-01 -5.877853e-01
			vertex 4.755283e-01 -3.454915e-01 -8.090170e-01
		endloop
	endfacet
	facet normal 1.122570e-01 -1.545085e-01 -1.816356e-01
		outer loop
			vertex 2.500000e-01 -7.694209e-01 -5.877853e-01
			vertex 1.816356e-01 -5.590170e-01 -8.090170e-01
			vertex 4.755283e-01 -3.454915e-01 -8.090170e-01
		endloop
	endfacet
	facet normal 4.627399e-02 -6.369068e-02 -1.469463e-01
		outer loop
			vertex 4.755283e-01 -3.454915e-01 -8.090170e-01
			vertex 1.816356e-01 -5.590170e-01 -8.090170e-01
			vertex 2.500000e-01 -1.816356e-01 -9.510565e-01
		endloop
	endfacet
	facet normal 4.627399e-02 -6.369068e-02 -1.469463e-01
		outer loop
			vertex 1.816356e-01 -5.590170e-01 -8.090170e-01
			vertex 9.549150e-02 -2.938926e-01 -9.510565e-01
			vertex 2.500000e-01 -1.816356e-01 -9.510565e-01
		endloop
	endfacet
	facet normal 5.494248e-03 -7.562184e-03 -5.612850e-02
		outer loop
			vertex 2.500000e-01 -1.816356e-01 -9.510565e-01
			vertex 9.549150e-02 -2.938926e-01 -9.510565e-01
			vertex 9.907601e-17 -7.198293e-17 -1.000000e+00
		endloop
	endfacet
	facet normal 5.494248e-03 -7.562184e-03 -5.612850e-02
		outer loop
			vertex 9.549150e-02 -2.938926e-01 -9.510565e-01
			vertex 3.784367e-17 -1.164708e-16 -1.000000e+00
			vertex 9.907601e-17 -7.198293e-17 -1.000000e+00
		endloop
	endfacet
	facet normal 8.889881e-03 -2.888497e-03 5.612850e-02
		outer loop
			vertex 0.000000e+00 -0.000000e+00 1.000000e+00
			vertex 0.000000e+00 -0.000000e+00 1.000000e+00
			vertex 3.090170e-01 -7.568733e-17 9.510565e-01
		endloop
	endfacet
	facet normal 8.889881e-03 -2.888497e-03 5.612850e-02
		outer loop
			vertex 0.000000e+00 -0.000000e+00 1.000000e+00
			vertex 2.500000e-01 -1.816356e-01 9.510565e-01
			vertex 3.090170e-01 -7.568733e-17 9.510565e-01
		endloop
	endfacet
	facet normal 7.487289e-02 -2.432768e-02 1.469463e-01
		outer loop
			vertex 3.090170e-01 -7.568733e-17 9.510565e-01
			vertex 2.500000e-01 -1.816356e-01 9.510565e-01
			vertex 5.877853e-01 -1.439659e-16 8.090170e-01
		endloop
	endfacet
	facet normal 7.487289e-02 -2.432768e-02 1.469463e-01
		outer loop
			vertex 2.500000e-01 -1.816356e-01 9.510565e-01
			vertex 4.755283e-01 -3.454915e-01 8.090170e-01
			vertex 5.877853e-01 -1.439659e-16 8.090170e-01
		endloop
	endfacet
	facet normal 1.816356e-01 -5.901699e-02 1.816356e-01
		outer loop
			vertex 5.877853e-01 -1.439659e-16 8.090170e-01
			vertex 4.755283e-01 -3.454915e-01 8.090170e-01
			vertex 8.090170e-01 -1.981520e-16 5.877853e-01
		endloop
	endfacet
	facet normal 1.816356e-01 -5.901699e-02 1.816356e-01
		outer loop
			vertex 4.755283e-01 -3.454915e-01 8.090170e-01
			vertex 6.545085e-01 -4.755283e-01 5.877853e-01
			vertex 8.090170e-01 -1.981520e-16 5.877853e-01
		endloop
	endfacet
	facet normal 2.883984e-01 -9.370631e-02 1.469463e-01
		outer loop
			vertex 8.090170e-01 -1.981520e-16 5.877853e-01
			vertex 6.545085e-01 -4.755283e-01 5.877853e-01
			vertex 9.510565e-01 -2.329417e-16 3.090170e-01
		endloop
	endfacet
	facet normal 2.883984e-01 -9.370631e-02 1.469463e-01
		outer loop
			vertex 6.545085e-01 -4.755283e-01 5.877853e-01
			vertex 7.694209e-01 -5.590170e-01 3.090170e-01
			vertex 9.510565e-01 -2.329417e-16 3.090170e-01
		endloop
	endfacet
	facet normal 3.543814e-01 -1.151455e-01 5.612850e-02
		outer loop
			vertex 9.510565e-01 -2.329417e-16 3.090170e-01
			vertex 7.694209e-01 -5.590170e-01 3.090170e-01
			vertex 1.000000e+00 -2.449294e-16 6.123234e-17
		endloop
	endfacet
	facet normal 3.543814e-01 -1.151455e-01 5.612850e-02
		outer loop
			vertex 7.694209e-01 -5.590170e-01 3.090170e-01
			vertex 8.090170e-01 -5.877853e-01 6.123234e-17
			vertex 1.000000e+00 -2.449294e-16 6.123234e-17
		endloop
	endfacet
	facet normal 3.543814e-01 -1.151455e-01 -5.612850e-02
		outer loop
			vertex 1.000000e+00 -2.449294e-16 6.123234e-17
			vertex 8.090170e-01 -5.877853e-01 6.123234e-17
			vertex 9.510565e-01 -2.329417e-16 -3.090170e-01
		endloop
	endfacet
	facet normal 3.543814e-01 -1.151455e-01 -5.612850e-02
		outer loop
			vertex 8.090170e-01 -5.877853e-01 6.123234e-17
			vertex 7.694209e-01 -5.590170e-01 -3.090170e-01
			vertex 9.510565e-01 -2.329417e-16 -3.090170e-01
		endloop
	endfacet
	facet normal 2.883984e-01 -9.370631e-02 -1.469463e-01
		outer loop
			vertex 9.510565e-01 -2.329417e-16 -3.090170e-01
			vertex 7.694209e-01 -5.590170e-01 -3.090170e-01
			vertex 8.090170e-01 -1.981520e-16 -5.877853e-01
		endloop
	endfacet
	facet normal 2.883984e-01 -9.370631e-02 -1.469463e-01
		outer loop
			vertex 7.694209e-01 -5.590170e-01 -3.090170e-01
			vertex 6.545085e-01 -4.755283e-01 -5.877853e-01
			vertex 8.090170e-01 -1.981520e-16 -5.877853e-01
		endloop
	endfacet
	facet normal 1.816356e-01 -5.901699e-02 -1.816356e-01
		outer loop
			vertex 8.090170e-01 -1.981520e-16 -5.877853e-01
			vertex 6.545085e-01 -4.755283e-01 -5.877853e-01
			vertex 5.877853e-01 -1.439659e-16 -8.090170e-01
		endloop
	endfacet
	facet normal 1.816356e-01 -5.901699e-02 -1.816356e-01
		outer loop
			vertex 6.545085e-01 -4.755283e-01 -5.877853e-01
			vertex 4.755283e-01 -3.454915e-01 -8.090170e-01
			vertex 5.877853e-01 -1.439659e-16 -8.090170e-01
		endloop
	endfacet
	facet normal 7.487289e-02 -2.432768e-02 -1.469463e-01
		outer loop
			vertex 5.877853e-01 -1.439659e-16 -8.090170e-01
			vertex 4.755283e-01 -3.454915e-01 -8.090170e-01
			vertex 3.090170e-01 -7.568733e-17 -9.510565e-01
		endloop
	endfacet
	facet normal 7.487289e-02 -2.432768e-02 -1.469463e-01
		outer loop
			vertex 4.755283e-01 -3.454915e-01 -8.090170e-01
			vertex 2.500000e-01 -1.816356e-01 -9.510565e-01
			vertex 3.090170e-01 -7.568733e-17 -9.510565e-01
		endloop
	endfacet
	facet normal 8.889881e-03 -2.888497e-03 -5.612850e-02
		outer loop
			vertex 3.090170e-01 -7.568733e-17 -9.510565e-01
			vertex 2.500000e-01 -1.816356e-01 -9.510565e-01
			vertex 1.224647e-16 -2.999520e-32 -1.000000e+00
		endloop
	endfacet
	facet normal 8.889881e-03 -2.888497e-03 -5.612850e-02
		outer loop
			vertex 2.500000e-01 -1.816356e-01 -9.510565e-01
			vertex 9.907601e-17 -7.198293e-17 -1.000000e+00
			vertex 1.224647e-16 -2.999520e-32 -1.000000e+00
		endloop
	endfacet
endsolid
